<svg width="25" height="25" viewBox="0 0 25 25" fill="none" xmlns="http://www.w3.org/2000/svg">
<path d="M18 6.25C18 9.28757 15.5376 11.75 12.5 11.75C9.46243 11.75 7 9.28757 7 6.25C7 3.21243 9.46243 0.75 12.5 0.75C15.5376 0.75 18 3.21243 18 6.25Z" stroke="black" stroke-opacity="0.8" stroke-width="1.5"/>
<mask id="path-2-inside-1_520_104" fill="white">
<path fill-rule="evenodd" clip-rule="evenodd" d="M23.4996 25C23.3524 18.8693 18.4539 14 12.5 14C6.54614 14 1.64758 18.8693 1.50038 25H0C0.147758 18.0707 5.68762 12.5 12.5 12.5C19.3124 12.5 24.8522 18.0707 25 25H23.4996Z"/>
</mask>
<path fill-rule="evenodd" clip-rule="evenodd" d="M23.4996 25C23.3524 18.8693 18.4539 14 12.5 14C6.54614 14 1.64758 18.8693 1.50038 25H0C0.147758 18.0707 5.68762 12.5 12.5 12.5C19.3124 12.5 24.8522 18.0707 25 25H23.4996Z" fill="black" fill-opacity="0.8"/>
<path d="M23.4996 25L11.5031 25.288L11.7843 37H23.4996V25ZM1.50038 25V37H13.2157L13.4969 25.288L1.50038 25ZM0 25L-11.9973 24.7442L-12.2586 37H0V25ZM25 25V37H37.2586L36.9973 24.7442L25 25ZM35.4962 24.712C35.1986 12.3174 25.2157 2 12.5 2V26C12.1301 26 11.8405 25.8345 11.6997 25.694C11.5607 25.5552 11.5055 25.3899 11.5031 25.288L35.4962 24.712ZM12.5 2C-0.215742 2 -10.1986 12.3174 -10.4962 24.712L13.4969 25.288C13.4945 25.3899 13.4393 25.5552 13.3003 25.694C13.1595 25.8345 12.8699 26 12.5 26V2ZM0 37H1.50038V13H0V37ZM12.5 0.5C-1.0964 0.5 -11.7159 11.5479 -11.9973 24.7442L11.9973 25.2558C12.0035 24.9643 12.1122 24.7609 12.2433 24.6296C12.3087 24.564 12.3655 24.532 12.3979 24.5182C12.4218 24.508 12.4476 24.5 12.5 24.5V0.5ZM36.9973 24.7442C36.7159 11.5479 26.0964 0.5 12.5 0.5V24.5C12.5524 24.5 12.5782 24.508 12.6021 24.5182C12.6345 24.532 12.6913 24.564 12.7567 24.6295C12.8878 24.7609 12.9965 24.9643 13.0027 25.2558L36.9973 24.7442ZM23.4996 37H25V13H23.4996V37Z" fill="black" mask="url(#path-2-inside-1_520_104)"/>
</svg>
